<?xml version="1.0"?>
<svg width="640" height="480" xmlns="http://www.w3.org/2000/svg" xmlns:svg="http://www.w3.org/2000/svg">
 <!-- Created with SVG-edit - http://svg-edit.googlecode.com/ -->
 <defs>
  <linearGradient id="svg_9">
   <stop offset="0" stop-color="#000000"/>
   <stop offset="1" stop-color="#ffffff"/>
  </linearGradient>
 </defs>
 <g>
  <title>Layer 1</title>
  <path d="m-92.081497,414.601593c0.255035,1.70816 0.884956,1.9245 1.56871,1.956573c1.151962,0.054047 1.960548,0.032684 2.951454,0.034515c2.619377,0.004822 4.28373,0.002716 6.171227,-0.001312c2.084755,-0.004425 4.340881,-0.014343 6.742386,-0.038849c2.521141,-0.025757 5.136086,-0.060699 7.818298,-0.12854c5.465229,-0.138214 8.195827,-0.261841 10.893284,-0.398468c2.642616,-0.13385 5.206245,-0.290497 7.667374,-0.469208c2.337975,-0.169769 4.529102,-0.346344 6.546631,-0.558899c3.439964,-0.362396 4.817822,-0.578064 5.977295,-0.791656c0.971817,-0.179016 1.771881,-0.36615 2.419308,-0.558868c0.530289,-0.157867 0.953156,-0.323456 1.298569,-0.469208c0.550377,-0.232239 0.79159,-0.33313 1.033405,-0.399841c0.23823,-0.065735 0.48431,-0.110962 0.739691,-0.147919c0.269312,-0.038971 0.559652,-0.06778 0.87418,-0.103119c0.724174,-0.08139 1.141764,-0.13739 1.595272,-0.200562c0.485598,-0.067627 0.998695,-0.14209 1.536165,-0.215179c0.557035,-0.075745 1.129768,-0.152191 1.715483,-0.215179c1.189016,-0.127869 1.787319,-0.165802 2.382948,-0.197937c0.591223,-0.031921 1.176805,-0.051544 1.754335,-0.06424c0.567463,-0.012482 1.123062,-0.017517 1.664677,-0.01944c1.033401,-0.003693 1.521553,-0.001312 1.989775,-0.001312c0.448296,0 0.876669,0 1.285117,0c0.388524,0 0.757124,0 1.1058,0c0.637578,0 0.931942,-0.017853 1.215383,0.03186c0.301295,0.052826 0.633487,0.201172 0.978783,0.466248c0.437687,0.335999 0.922199,0.851746 1.471908,1.542145c1.512609,1.89975 2.372162,3.248596 3.38182,4.775177c1.120986,1.694916 2.302352,3.550598 3.531086,5.533478c1.28078,2.066895 2.575263,4.201385 3.844894,6.385254c2.515709,4.32724 3.660889,6.454834 4.755269,8.516968c1.052765,1.983734 2.022982,3.901184 2.939334,5.727753l0.851598,1.731903l0.785848,1.628326l0.719102,1.515747" id="svg_40" stroke-linecap="null" stroke-linejoin="null" stroke-dasharray="null" stroke-width="0" stroke="#000000" fill="none"/>
  <path d="m-110.013374,412.609161c22.746918,62.595551 24.057449,66.084717 25.169716,68.908875c0.886887,2.251892 1.601311,3.99353 2.1847,5.288422c0.425346,0.944092 0.750275,1.597809 1.019127,2.015839c0.328346,0.510529 0.497055,0.69342 0.632271,0.892609c0.132408,0.195038 0.256523,0.389954 0.382545,0.578308c0.123718,0.184906 0.245552,0.367188 0.382545,0.533478c0.269829,0.327515 0.432732,0.465424 0.596405,0.597717c0.162186,0.131073 0.730942,0.394745 1.345551,1.081238c0.486664,0.543579 1.304199,1.094757 1.992432,0.942261c0.479156,-0.106171 1.038673,-0.384613 1.673645,-0.793488c1.702637,-1.096375 2.673019,-1.987213 3.761711,-2.999268c1.203781,-1.119019 2.409508,-2.426788 3.655113,-3.84491l1.235641,-1.542633l1.197777,-1.658203l1.132034,-1.764801" id="svg_44" stroke-linecap="null" stroke-linejoin="null" stroke-dasharray="null" stroke-width="0" stroke="url(#svg_9)" fill="none"/>
  <path d="m10.528708,433.529694c0.021253,1.8078 0.436517,2.776978 0.864051,2.91507c0.862288,0.278503 1.572234,0.374176 2.475928,0.577148c1.14724,0.25769 4.298118,0.988892 6.350375,1.480865c2.33514,0.559784 4.893465,1.181519 7.622545,1.829071c2.838737,0.673584 5.734217,1.338898 8.626726,1.990417l2.833736,0.615662" id="svg_45" stroke-linecap="null" stroke-linejoin="null" stroke-dasharray="null" stroke-width="0" stroke="url(#svg_9)" fill="none"/>
  <g stroke="null" id="svg_70">
   <path stroke="url(#svg_9)" id="svg_19" d="m251.022473,327.811968c0,-1.211218 0,-1.906049 0,-3.117267c0,-1.70439 2.142546,-4.189285 3.531882,-5.93126c0.380097,-0.406388 1.063527,-0.563974 1.424417,-0.178122c0.320553,0.342724 0.296357,1.18435 0.041646,1.603085c-0.466478,0.759983 -0.93295,1.519962 -1.399428,2.279942c-0.2338,0.432962 0.339914,0.783578 0.683054,0.320621c1.791564,-2.630121 2.28222,-3.163354 2.28222,-4.221462c0,-2.161199 0,-2.131513 0,-4.292709c0,-0.618758 0.417372,-1.21122 0.950621,-1.21122c0.507457,0 0.94877,0.569799 0.94877,1.10688c0,3.491167 0,4.805985 0,8.29715c0,1.075287 -3.132044,4.327808 -3.132044,5.8431c0,0.35624 0,0.712478 0,1.068722c-1.777477,0 -3.554965,0 -5.332448,0c0.000379,-0.522487 0.000941,-1.044974 0.00132,-1.567459l-0.000011,-0.000001zm-1.883616,0c0,-1.211222 0,-1.906049 0,-3.117267c0,-1.704394 -2.14254,-4.189285 -3.531877,-5.93126c-0.380097,-0.406388 -1.063527,-0.563974 -1.424416,-0.178122c-0.320559,0.342724 -0.296363,1.18435 -0.041653,1.603085c0.466479,0.759983 0.932951,1.519962 1.399429,2.279942c0.233798,0.432962 -0.339916,0.783578 -0.683056,0.320621c-1.791558,-2.630121 -2.28222,-3.163354 -2.28222,-4.221462c0,-2.161199 0,-2.131513 0,-4.292709c0,-0.618758 -0.41737,-1.21122 -0.950619,-1.21122c-0.507459,0 -0.948771,0.569799 -0.948771,1.10688c0,3.491167 0,4.805982 0,8.29715c0,1.075284 3.132045,4.327808 3.132045,5.8431c0,0.35624 0,0.712478 0,1.068722c1.777483,0 3.554965,0 5.332448,0c-0.000379,-0.522487 -0.000942,-1.044974 -0.001315,-1.567459l0.000005,-0.000001zm-2.820193,-15.309252l3.197697,2.600339l0,4.078963l-3.197697,-2.600338l0,-4.078963l0,-0.000001zm7.523992,0l-3.197697,2.600339l0,4.078963l3.197697,-2.600338l0,-4.078963l0,-0.000001zm-7.523992,-1.274674l3.761996,-3.059223l3.761996,3.059221l-3.761996,3.059223l-3.761996,-3.059221l0,-0.000001z" stroke-linecap="null" stroke-linejoin="null" stroke-dasharray="null" stroke-width="0" fill="#ffffff"/>
   <path stroke="#000000" d="m167.151128,160.877466c6.077279,9.485778 6.927213,10.378492 7.51661,10.987601c0.676769,0.699405 1.058181,1.484458 1.370549,2.009095c0.391254,0.657123 0.869153,1.468784 2.17753,3.599083c0.833775,1.357558 1.781213,2.877866 2.851367,4.497053c1.130344,1.710255 2.332049,3.449213 3.62811,5.134092c1.284087,1.669333 2.488894,3.387178 5.322856,5.764921c1.256387,1.054124 2.600595,1.796014 3.953413,2.154059c1.323939,0.350401 2.750886,0.325337 4.172493,-0.037798c1.539842,-0.393344 3.200181,-1.101147 6.627009,-3.515898c2.001213,-1.410185 4.023177,-3.197084 6.175748,-5.116103c2.272813,-2.026221 4.589207,-4.206593 6.982373,-6.44415c2.439517,-2.280904 4.859257,-4.639132 9.893303,-9.034496c2.455923,-2.14432 4.917294,-4.139293 7.334229,-6.014073c2.32097,-1.800341 4.571836,-3.452769 6.726779,-4.955933c2.008881,-1.401282 3.860083,-2.69063 7.146306,-4.626021c1.331345,-0.784079 2.50968,-1.413704 3.598236,-1.747355c0.971389,-0.297746 1.947709,-0.360461 2.881246,-0.13856c1.008377,0.239689 2.093763,0.778475 4.585199,2.485763c1.562018,1.070387 3.247668,2.40243 5.15172,3.77184c2.043242,1.469519 4.225895,2.979464 6.5857,4.376483c2.424883,1.435543 4.911659,2.988955 10.391958,4.648412c2.754089,0.83395 5.618878,1.176394 8.45784,1.335268c2.804626,0.156963 5.560189,0.059555 8.218863,-0.154758c2.545194,-0.205162 4.935165,-0.533236 9.140893,-1.18051c1.770574,-0.272498 3.355912,-0.548552 4.831396,-0.640631c1.4161,-0.088377 2.854181,-0.023521 4.343443,0.266333c1.646738,0.320495 3.501355,0.867164 7.975429,2.773687c2.811354,1.197986 5.932051,2.734005 9.374006,4.444867c3.731587,1.854815 7.684051,3.903013 11.843647,6.064458l4.321123,2.26942l4.445043,2.353395" id="svg_53" stroke-linecap="null" stroke-linejoin="null" stroke-dasharray="null" stroke-width="0" fill="none"/>
   <ellipse stroke="#000000" ry="55.185933" rx="139.96828" id="svg_62" cy="256.852998" cx="294.948254" stroke-linecap="null" stroke-linejoin="null" stroke-dasharray="null" stroke-width="0" fill="#0000ff"/>
   <g stroke="null" id="svg_65">
    <text stroke="#000000" id="svg_66" font-style="normal" font-weight="normal" transform="matrix(2.152199379184577,0,0,1.0766959406115455,-22.265256645679045,-14.623202803585116) " xml:space="preserve" text-anchor="middle" font-family="Cursive" font-size="24" y="266.945834" x="129.191142" stroke-linecap="null" stroke-linejoin="null" stroke-dasharray="null" stroke-width="0" fill="#ff0000">A.A.C.R</text>
    <path stroke="#000000" id="svg_67" d="m367.463374,243.342514c-0.125639,-0.125495 -0.282055,-0.249292 -0.482054,-0.342561c-0.853851,-0.412095 -2.058986,-0.2866 -2.684627,0.281518c-0.625641,0.569804 -0.428208,1.365152 0.428208,1.777246c0.776926,0.373089 1.815393,0.283204 2.476932,-0.154325l-18.169315,16.565094l-5.648744,13.561727l17.735986,-7.761919l40.389927,-36.825434l-12.092362,-5.799808l-3.897459,3.554505c-0.223078,-0.591853 -0.720515,-1.146399 -1.528207,-1.538142c-1.871804,-0.897107 -4.489769,-0.625765 -5.846188,0.615601c-7.774392,7.092054 -3.464119,8.981224 -10.682098,16.066498zm-8.894916,22.171571l-9.123114,3.993732l2.90514,-6.981817l6.217974,2.988085zm10.746206,-22.532786c5.597464,-5.46912 5.064131,-6.951301 9.853892,-11.806518c0.792309,0.359517 1.702571,0.48671 2.594885,0.456183l-12.448777,11.350336z" stroke-linecap="null" stroke-linejoin="null" stroke-dasharray="null" stroke-width="0" fill="#000000"/>
    <text stroke="#000000" id="svg_68" font-style="normal" font-weight="normal" transform="matrix(2.1385557227435887,0,0,1.0766959406115455,16.651091394784743,-31.41892014035642) " xml:space="preserve" text-anchor="middle" font-family="Cursive" font-size="24" y="282.545147" x="113.110948" stroke-linecap="null" stroke-linejoin="null" stroke-dasharray="null" stroke-width="0" fill="#000000">A.A.C.R</text>
    <path stroke="#000000" id="svg_69" d="m410.814757,226.371737c-0.88666,0 -1.889853,0 -3.058646,0c-0.666836,0 -1.413341,0 -2.605003,0c-1.172858,0 -1.91271,0 -2.994849,0c-0.72879,0 -2.280798,0 -3.12171,0c-0.885172,0 -1.814605,0 -2.788286,0c-1.012055,0 -2.032963,0 -3.027303,0c-0.932387,0 -2.138432,0 -3.074517,0l-0.917626,0l-1.071621,0l-1.030681,0" stroke-linecap="null" stroke-linejoin="null" stroke-dasharray="null" stroke-width="0" fill="none"/>
   </g>
  </g>
 </g>
</svg>