<?xml version="1.0" encoding="UTF-8" standalone="no"?>
<!-- Created with Inkscape (http://www.inkscape.org/) -->

<svg
   xmlns:dc="http://purl.org/dc/elements/1.1/"
   xmlns:cc="http://creativecommons.org/ns#"
   xmlns:rdf="http://www.w3.org/1999/02/22-rdf-syntax-ns#"
   xmlns:svg="http://www.w3.org/2000/svg"
   xmlns="http://www.w3.org/2000/svg"
   xmlns:xlink="http://www.w3.org/1999/xlink"
   xmlns:sodipodi="http://sodipodi.sourceforge.net/DTD/sodipodi-0.dtd"
   xmlns:inkscape="http://www.inkscape.org/namespaces/inkscape"
   width="297mm"
   height="210mm"
   viewBox="0 0 297 210"
   version="1.1"
   id="svg8"
   inkscape:version="0.92.0 r15299"
   sodipodi:docname="logoac.svg">
  <defs
     id="defs2" />
  <sodipodi:namedview
     id="base"
     pagecolor="#ffffff"
     bordercolor="#666666"
     borderopacity="1.0"
     inkscape:pageopacity="0.0"
     inkscape:pageshadow="2"
     inkscape:zoom="0.35"
     inkscape:cx="-84.285714"
     inkscape:cy="560"
     inkscape:document-units="mm"
     inkscape:current-layer="layer1"
     showgrid="false"
     showguides="false"
     inkscape:guide-bbox="true"
     inkscape:window-width="1600"
     inkscape:window-height="837"
     inkscape:window-x="-8"
     inkscape:window-y="-8"
     inkscape:window-maximized="1">
    <sodipodi:guide
       position="-326.57142,120.95238"
       orientation="1,0"
       id="guide3740"
       inkscape:locked="false" />
  </sodipodi:namedview>
  <metadata
     id="metadata5">
    <rdf:RDF>
      <cc:Work
         rdf:about="">
        <dc:format>image/svg+xml</dc:format>
        <dc:type
           rdf:resource="http://purl.org/dc/dcmitype/StillImage" />
        <dc:title></dc:title>
      </cc:Work>
    </rdf:RDF>
  </metadata>
  <g
     inkscape:label="Capa 1"
     inkscape:groupmode="layer"
     id="layer1"
     style="display:inline"
     transform="translate(0,-87)">
    <flowRoot
       xml:space="preserve"
       id="flowRoot3680"
       style="font-style:normal;font-weight:normal;font-size:40px;line-height:25px;font-family:sans-serif;letter-spacing:0px;word-spacing:0px;fill:#000000;fill-opacity:1;stroke:none"><flowRegion
         id="flowRegion3682"><rect
           id="rect3684"
           width="580"
           height="137.14285"
           x="102.85714"
           y="268.23398" /></flowRegion><flowPara
         id="flowPara3686"></flowPara></flowRoot>    <path
       style="fill:#000000;fill-opacity:0;stroke-width:0.26458332"
       id="path3738"
       sodipodi:type="arc"
       sodipodi:cx="82.776787"
       sodipodi:cy="116.70536"
       sodipodi:rx="48.002975"
       sodipodi:ry="51.026787"
       sodipodi:start="0"
       sodipodi:end="3.4252813"
       d="m 130.77976,116.70536 a 48.002975,51.026787 0 0 1 -28.03401,46.40209 48.002975,51.026787 0 0 1 -51.357991,-7.79608 48.002975,51.026787 0 0 1 -14.695246,-52.88834 l 46.084274,14.28233 z" />
    <flowRoot
       xml:space="preserve"
       id="flowRoot3742"
       style="font-style:normal;font-weight:normal;font-size:42.66666794px;line-height:25px;font-family:sans-serif;letter-spacing:0px;word-spacing:0px;fill:#000000;fill-opacity:1;stroke:none"
       transform="scale(0.26458333)"><flowRegion
         id="flowRegion3744"
         style="font-size:42.66666794px"><rect
           id="rect3746"
           width="451.42856"
           height="520"
           x="-600"
           y="-17.480314"
           style="font-size:42.66666794px" /></flowRegion><flowPara
         id="flowPara3748"></flowPara></flowRoot>    <text
       xml:space="preserve"
       style="font-style:normal;font-weight:normal;font-size:42.63312912px;line-height:26.64570999px;font-family:sans-serif;letter-spacing:0px;word-spacing:0px;fill:#1ed8e6;fill-opacity:0.97948716;stroke:none;stroke-width:1.0658282"
       x="7.541039"
       y="148.42279"
       id="text3752"
       transform="scale(0.77515118,1.2900709)"><tspan
         sodipodi:role="line"
         id="tspan3750"
         x="7.541039"
         y="148.42279"
         style="font-style:italic;font-variant:normal;font-weight:normal;font-stretch:normal;font-size:90.95069122px;line-height:58.78232956px;font-family:Mistral;-inkscape-font-specification:'Mistral Italic';fill:#1ed8e6;fill-opacity:0.97948716;stroke-width:1.0658282">A.C. Cinema</tspan></text>
    <path
       style="fill:#0000ff;fill-opacity:0;stroke-width:0.26458332"
       id="path3754"
       d="m -197.9971,139.1418 c 2.72155,4.63662 6.45696,8.49373 10.43264,12.05823 4.37443,3.867 9.22089,7.09614 14.38789,9.78575 3.36875,2.19083 7.12425,2.43274 11.01988,2.66928 7.23378,0.21262 14.48326,0.37479 21.7163,0.0729 4.87163,0.0291 9.32322,-1.05073 13.99513,-2.19725 5.42645,-1.2298 10.78974,-2.78799 16.12352,-4.37638 5.7469,-1.55271 11.395295,-3.43624 17.119367,-5.0632 7.82782,-2.08055 15.891571,-3.05157 23.920194,-3.98029 7.87465,-0.73118 15.63376,-2.19582 23.389674,-3.68315 4.966949,-0.96549 10.049243,-1.03643 15.089404,-1.26275 6.363025,-0.27421 12.730364,-0.42959 19.098156,-0.53567 3.717328,-0.0117 7.4372352,-0.23005 11.13989812,0.16224 1.44126255,0.23783 2.79027118,0.62691 4.07372318,1.31889 0,0 -9.3465911,6.15391 -9.3465911,6.15391 v 0 c -1.2110161,-0.54125 -2.4848266,-0.85751 -3.8036756,-1.01946 -3.6167566,-0.36061 -7.2541186,-0.15598 -10.8829716,-0.19136 -6.329987,0.048 -12.661294,0.15476 -18.982801,0.50672 -5.038162,0.31121 -10.106022,0.48089 -15.076858,1.42883 -7.688392,1.37144 -15.391632,2.64046 -23.166559,3.42963 -8.071877,0.9927 -16.178615,2.05495 -24.02177,4.27692 -5.70058,1.68979 -11.36588,3.49622 -17.10441,5.05834 -5.39824,1.58452 -10.80169,3.19584 -16.28948,4.44005 -4.60719,1.13431 -9.23699,1.9899 -14.01167,1.92318 -7.26401,0.13966 -14.53372,0.0138 -21.79675,-0.13093 -4.46379,-0.23366 -7.5911,-0.49914 -11.40922,-2.98337 -5.12115,-2.86396 -9.87347,-6.28807 -14.30538,-10.13965 -4.06553,-3.61393 -7.8694,-7.48673 -10.93071,-12.01056 0,0 9.62307,-5.71081 9.62307,-5.71081 z"
       inkscape:connector-curvature="0" />
    <path
       style="fill:#0000ff;fill-opacity:0;stroke-width:0.26458332"
       id="path3756"
       d="m -210.82845,150.51006 c 6.28595,2.82948 12.7533,5.22966 19.18746,7.69516 9.44215,3.53553 19.14237,6.29991 28.8641,8.94311 2.35503,0.59483 4.84803,1.25963 7.30916,0.91426 2.24243,-0.31468 4.23595,-1.44037 6.19629,-2.48259 -2.35107,1.34193 -4.68301,2.71792 -7.05319,4.02579 -0.76741,0.42346 1.4998,-0.90759 2.24333,-1.37169 2.60007,-1.62295 5.10933,-3.36371 7.61018,-5.13344 4.2575,-3.15504 8.94141,-5.5786 13.57434,-8.18179 1.48112,-0.83223 3.29458,-1.30781 4.88381,-1.87554 3.63959,-1.37392 7.49994,-1.80403 11.35306,-2.04212 5.44876,-0.50652 10.92445,-0.59776 16.39213,-0.70959 4.671495,-0.0757 9.342949,-0.16468 14.015138,-0.1775 5.815145,0.0427 11.630152,0.0996 17.445517,0.0889 4.569251,0.13618 9.184007,0.4077 13.687618,1.24064 2.400403,0.73413 4.72532,1.58205 7.208001,2.001 5.590728,0.66031 11.234192,0.49114 16.845415,0.27129 7.923904,-0.1899 15.791694,-1.29994 23.7060193,-1.61643 5.1405004,0.51027 6.45144413,3.21082 8.5946758,7.43971 1.5429094,3.43929 3.0525801,6.89347 4.6679343,10.29908 0.1665216,0.32345 0.3330433,0.64689 0.4995649,0.97034 0,0 -9.6938586,5.52042 -9.6938586,5.52042 v 0 c -0.1658398,-0.34012 -0.3316793,-0.68025 -0.497519,-1.02038 -1.4958333,-3.44657 -2.9162251,-6.9239 -4.5156268,-10.32549 -1.9856709,-3.83361 -3.1699189,-6.16749 -7.8590509,-6.43909 -7.825989,0.24527 -15.6168,1.15989 -23.442855,1.43349 -5.790229,0.2723 -11.646397,0.60687 -17.412837,-0.1663 -2.455146,-0.49075 -4.778,-1.36869 -7.194635,-2.00255 -4.392144,-0.75646 -8.842669,-1.24915 -13.302641,-1.27805 -5.891377,-0.0141 -11.782507,0.0376 -17.673693,0.079 -4.604105,-0.001 -9.208687,-0.0393 -13.812237,0.0574 -5.51756,0.12654 -11.03531,0.32578 -16.52953,0.87779 -3.80327,0.30985 -7.5844,0.85818 -11.15457,2.28136 -1.30443,0.49616 -2.25635,0.83171 -3.5133,1.4073 -0.44528,0.20391 -1.73417,0.90906 -1.31364,0.65805 15.34966,-9.1622 8.43683,-5.11281 5.28644,-2.82936 -6.93405,4.86359 -14.00022,9.49031 -21.57628,13.34502 -1.7452,0.82667 -2.5835,1.34118 -4.44338,1.78857 -3.18283,0.7656 -6.34896,-0.0604 -9.40679,-0.97006 -9.59223,-2.91108 -19.20382,-5.77683 -28.63006,-9.19931 -6.62632,-2.38898 -13.25249,-4.77637 -19.84554,-7.2558 0,0 9.30105,-6.26052 9.30105,-6.26052 z"
       inkscape:connector-curvature="0" />
    <path
       style="fill:#0000ff;fill-opacity:0;stroke-width:0.26458332"
       id="path3758"
       d="m 16.022986,101.54918 c 3.217373,5.44852 6.798238,10.67409 10.294169,15.9457 6.571939,11.02233 13.044402,22.0993 19.817216,33.0018 6.474405,9.85327 13.42295,19.43899 21.377817,28.1616 4.041201,4.43123 5.59402,5.72827 9.813671,9.65216 3.563639,2.87277 7.031077,6.25269 11.368511,7.96669 0.581933,0.22995 1.171072,0.48681 1.79297,0.55587 0.577869,0.0642 1.15769,-0.10931 1.736532,-0.16397 0.663025,-0.19848 1.336172,-0.36584 1.989074,-0.59544 3.169269,-1.11448 6.264464,-2.50013 9.391074,-3.72577 2.80736,-1.10049 6.62432,-2.54845 9.40365,-3.60865 11.20809,-4.46837 22.25784,-9.37589 33.04635,-14.78113 4.90151,-2.26548 9.51641,-5.10069 14.32939,-7.53263 1.85076,-0.93516 3.37693,-1.52444 5.28483,-2.31263 4.52485,-1.9831 9.36453,-2.79841 14.24923,-3.21673 3.28149,-0.2218 6.57181,-0.25607 9.8596,-0.26036 0.60357,0.0818 1.35759,0.13015 1.9161,0.41934 2.37891,1.23179 5.02973,5.50421 6.52374,7.62326 4.54509,6.67459 8.51778,13.71247 12.57784,20.68554 0.49206,0.85595 0.98413,1.71191 1.4762,2.56787 0,0 -9.40657,5.40996 -9.40657,5.40996 v 0 c -0.46472,-0.86704 -0.92943,-1.73408 -1.39415,-2.60112 -3.91364,-7.01289 -7.80161,-14.06288 -12.51986,-20.58051 -1.56319,-2.07684 -3.83777,-5.83633 -6.46697,-6.75302 -0.48199,-0.16805 -1.23171,-0.18651 -1.72818,-0.22148 -3.22112,-0.0275 -6.44653,-0.0215 -9.65919,0.24649 -4.80488,0.48982 -9.53212,1.42033 -13.96529,3.41948 -6.59788,2.83395 -12.75946,6.55 -19.24198,9.6332 -10.84355,5.31354 -21.89577,10.22116 -33.10741,14.70601 -4.12202,1.6011 -5.546165,2.1403 -9.557391,3.75006 -3.193667,1.28166 -6.417443,2.86467 -9.741535,3.79949 -0.71368,0.20071 -1.456243,0.27899 -2.184366,0.41848 -0.647324,-0.0504 -1.30915,-0.006 -1.941973,-0.15121 -4.513066,-1.03602 -9.459544,-6.49074 -12.80514,-9.296 -4.096438,-4.07102 -5.575911,-5.41549 -9.542679,-9.93541 C 51.198232,174.877 44.086446,165.35191 37.462383,155.54751 30.569072,144.72986 23.938625,133.75345 17.158827,122.86641 13.591894,117.63694 9.9407913,112.46546 6.4096293,107.2117 c 0,0 9.6133567,-5.66252 9.6133567,-5.66252 z"
       inkscape:connector-curvature="0" />
    <path
       style="fill:#0000ff;fill-opacity:0;stroke-width:0.26458332"
       id="path3760"
       d="m -256.88476,106.23514 c 0.70673,0.16603 1.4281,0.27891 2.1202,0.4981 2.52316,0.79907 5.46779,2.08666 7.81371,3.18848 5.47399,2.57101 10.72488,5.53994 15.9748,8.53194 6.614,3.8432 13.01595,8.05053 18.80429,13.06938 2.72525,2.36295 4.63068,4.30847 7.19433,6.82442 3.96595,4.20032 7.74973,8.62118 11.06061,13.36321 0.80144,1.14787 3.6045,5.48495 4.41229,6.7289 3.72567,5.72723 6.54921,11.96481 9.2908,18.20348 2.84602,7.50894 5.75085,14.98568 8.8707,22.38487 1.5803,4.08852 3.6367,7.94601 6.14447,11.53304 1.83126,2.19433 4.63083,2.14658 7.26597,2.29866 6.7937,-0.13567 12.8585,-3.38789 18.83689,-6.25828 -2.47425,1.61232 9.71778,-5.3002 7.30235,-3.94967 -1.91667,1.07166 -3.73864,2.32993 -5.74174,3.22976 -1.15196,0.51748 2.12475,-1.36594 3.17008,-2.07452 1.54197,-1.04523 3.61529,-2.56622 5.14662,-3.6773 3.57972,-2.58953 7.09663,-5.26472 10.69094,-7.83405 4.96803,-3.4116 2.39641,-1.70523 12.80855,-7.61359 0.68542,-0.38894 2.64721,-1.26407 3.43338,-1.54018 1.13962,-0.40024 2.05373,-0.56923 3.221762,-0.82922 2.306325,-0.42426 4.655722,-0.65675 6.989272,-0.39145 3.099568,0.48136 6.022039,1.55916 8.810014,2.96657 2.749809,1.56807 5.198494,3.60188 7.616267,5.63014 3.940323,3.16314 7.680076,6.5613 11.537772,9.82028 2.657571,2.29312 5.426274,4.45088 8.130522,6.68599 0,0 -9.410301,5.87209 -9.410301,5.87209 v 0 c -2.625632,-2.29533 -5.308854,-4.52574 -7.962098,-6.7893 -3.854222,-3.27558 -7.622579,-6.65755 -11.645913,-9.72942 -2.413098,-1.91979 -4.8006,-3.9163 -7.521403,-5.39416 -2.714228,-1.31205 -5.589955,-2.29555 -8.609284,-2.57625 -2.26419,-0.0454 -4.52935,0.10732 -6.74069,0.63032 -1.36266,0.36134 -1.74293,0.4198 -3.08331,0.95633 -3.38047,1.35315 -10.73805,5.59023 4.29536,-2.82825 0.56865,-0.31843 -1.08359,0.72448 -1.62539,1.08671 -3.65371,2.57857 -7.22014,5.27659 -10.85127,7.8868 -2.76692,1.99891 -5.50451,4.13343 -8.43231,5.89432 -6.51343,3.91744 -13.06693,7.82507 -19.87581,11.2202 -6.15821,2.92963 -12.45784,6.09018 -19.4498,6.02892 -3.01968,-0.20969 -5.95,-0.47841 -7.88687,-3.0981 -2.44619,-3.7252 -4.39978,-7.72473 -5.93481,-11.91207 -2.97791,-7.4435 -5.94068,-14.88983 -8.84684,-22.36144 -2.78912,-6.15572 -5.62841,-12.31901 -9.18421,-18.07821 -1.24295,-1.95928 -3.0205,-4.80677 -4.33806,-6.69329 -3.27654,-4.69142 -6.98536,-9.09157 -10.87816,-13.27785 -2.60631,-2.58128 -4.31636,-4.35199 -7.08893,-6.78097 -5.7007,-4.99421 -12.01274,-9.2075 -18.55527,-13.01268 -5.2746,-2.96758 -10.55143,-5.89141 -16.11969,-8.28554 -2.61148,-1.12283 -5.23997,-2.15263 -8.028,-2.74448 -0.71614,-0.15203 -1.45647,-0.1502 -2.18471,-0.22531 0,0 9.05292,-6.57733 9.05292,-6.57733 z"
       inkscape:connector-curvature="0" />
    <path
       style="fill:#0000ff;fill-opacity:0;stroke-width:0.26458332"
       id="path3762"
       d="m 19.70347,78.540911 c 2.021237,2.560624 4.473284,4.705426 7.036239,6.69944 4.112467,2.862337 9.177748,3.601585 13.985545,4.558398 6.960676,1.410142 14.021717,2.210112 21.102489,2.676768 3.230504,0.245287 6.444382,0.258437 9.664435,-0.0474 3.111603,-0.378873 6.20713,-0.818277 9.337349,-1.047909 5.461646,-0.24248 10.932438,-0.146817 16.397589,-0.118695 9.212764,0.262639 18.393884,-0.494136 27.550954,-1.398362 5.30742,-0.393208 10.42422,-1.824596 15.60153,-2.935036 8.08169,-1.362205 16.31245,-1.394508 24.48477,-1.547088 8.7041,-0.114951 17.41084,-0.30358 26.11397,-0.07242 9.06944,0.447963 18.11966,1.185428 27.18692,1.672187 3.78021,0.293386 7.67526,0.368589 11.12296,2.082356 0,0 -9.27697,6.125604 -9.27697,6.125604 v 0 c -3.28768,-1.513223 -6.99051,-1.625454 -10.54206,-1.971368 -9.03233,-0.630568 -18.06101,-1.351767 -27.11145,-1.674095 -8.65884,-0.14613 -17.32112,-0.07305 -25.98014,0.03227 -8.24845,0.208449 -16.56709,0.33733 -24.68644,1.958689 -5.13267,1.169083 -10.25612,2.4033 -15.53568,2.712363 -9.17159,0.739904 -18.356022,1.409152 -27.565538,1.293209 -5.554152,0.05337 -11.116218,0.05239 -16.660887,0.415827 -3.134704,0.270309 -6.235432,0.775901 -9.365533,1.080601 -3.208514,0.263088 -6.411933,0.06007 -9.616238,-0.214681 -7.041515,-0.646467 -14.056847,-1.563195 -21.004205,-2.895097 -5.031229,-0.94584 -10.348391,-1.649195 -14.562877,-4.792683 -2.618507,-2.057847 -5.030884,-4.348332 -7.272383,-6.813516 0,0 9.595651,-5.779362 9.595651,-5.779362 z"
       inkscape:connector-curvature="0" />
    <path
       style="fill:#0000ff;fill-opacity:0;stroke-width:0.26458332"
       id="path3764"
       d="m 21.896894,77.049608 c 2.433957,1.05886 4.975509,1.760736 7.532638,2.443914 4.741596,1.270132 9.340771,2.105062 14.222079,2.674866 4.497668,0.566219 9.007134,1.04829 13.533427,1.309431 2.684277,0.123102 5.372484,0.121578 8.058999,0.117583 2.611964,-0.03848 5.238658,-0.323178 7.822547,-0.714679 3.949906,-1.046922 7.879072,-2.176606 11.844776,-3.178225 3.790884,-1.189302 7.621318,-2.197188 11.572756,-2.642344 4.487594,-0.475215 8.966444,-1.006144 13.438904,-1.609854 3.99665,-0.758921 8.01954,-1.266561 12.07785,-1.519063 4.14805,-0.15974 8.30041,-0.157597 12.45092,-0.158801 3.28131,-0.01416 6.56265,-0.01529 9.84397,-0.02463 3.94611,-0.06674 7.88148,0.103108 11.82066,0.307411 7.47017,0.316794 14.82901,1.423017 22.10222,3.113138 5.75264,1.710841 11.67015,2.885099 17.38229,4.727112 2.46534,0.667742 4.7576,1.726472 7.01064,2.897603 0.95763,0.646694 0.49186,0.34305 1.39516,0.914217 0,0 -9.43366,6.059802 -9.43366,6.059802 v 0 c -0.86441,-0.56982 -0.42585,-0.286744 -1.31594,-0.848791 -2.16332,-1.160259 -4.4271,-2.091843 -6.76933,-2.834865 -5.59401,-1.882648 -11.37013,-3.21374 -17.04183,-4.835183 -7.29821,-1.609799 -14.6758,-2.663505 -22.16075,-2.837284 -3.99439,-0.152762 -7.98606,-0.175667 -11.98297,-0.130762 -3.24688,-0.01778 -6.49378,-0.03367 -9.74068,-0.04677 -4.14854,0.01024 -8.30093,-0.0016 -12.44391,0.243149 -4.01663,0.288989 -7.99346,0.862883 -11.96483,1.524836 -4.506143,0.592363 -9.020538,1.111224 -13.530695,1.670257 -3.885858,0.551984 -7.660174,1.581086 -11.420183,2.694815 -4.023834,1.022141 -7.982376,2.30731 -12.039052,3.172984 -2.621699,0.332872 -5.262402,0.624491 -7.90873,0.586716 -2.701319,-0.0069 -5.405784,0.0097 -8.101954,-0.185364 -4.45857,-0.393044 -8.895101,-0.987428 -13.339553,-1.5108 -4.898835,-0.606176 -9.746748,-1.438516 -14.537078,-2.642214 -2.588158,-0.683408 -5.097556,-1.581343 -7.644626,-2.392392 0,0 9.265935,-6.345814 9.265935,-6.345813 z"
       inkscape:connector-curvature="0" />
    <path
       style="fill:#0000ff;fill-opacity:0;stroke-width:0.26458332"
       id="path3766"
       d="m -66.442944,44.884578 c 4.567071,8.797282 10.496577,16.776297 16.440515,24.672474 5.278618,6.912875 10.569668,13.8156 16.11339,20.519247 3.22264,4.090056 7.920839,6.039811 12.659037,7.791932 4.735751,1.527614 9.623944,2.408339 14.5667486,2.880539 7.9653131,0.0385 15.8788802,-0.965377 23.7731394,-1.90488 5.472336,-0.6746 10.956947,-1.236142 16.441323,-1.799225 7.531473,-0.738211 15.008428,-1.878687 22.48776,-3.011845 5.466911,-0.776613 10.928151,-1.661763 16.439412,-2.061752 7.828967,-0.09727 15.657393,0.07053 23.478373,0.419457 7.967866,0.474255 15.985706,0.697899 23.892056,1.861632 2.9085,0.279046 5.66516,1.24029 8.5062,1.835772 0.27913,0.0443 0.56504,0.05742 0.8374,0.132905 0.31916,0.08845 0.61409,0.249211 0.92752,0.356214 1.94123,0.662731 3.92371,1.219674 5.87136,1.86635 5.1342,1.607092 10.34695,2.966732 15.56004,4.296962 2.76661,0.69961 5.58789,1.11282 8.4361,1.23797 0.93418,0.0308 1.86888,0.0263 2.80338,0.0237 0,0 -9.05526,6.57242 -9.05526,6.57242 v 0 c -0.94567,-0.0116 -1.8918,-0.0212 -2.83591,-0.0833 -2.83695,-0.24438 -5.63287,-0.78514 -8.37814,-1.54364 -5.20183,-1.45197 -10.4318,-2.79574 -15.61332,-4.31727 -2.57148,-0.7591 -5.13529,-1.57513 -7.74839,-2.17598 -2.73121,-0.69135 -5.41455,-1.57388 -8.2237,-1.92846 -7.75543,-1.200568 -15.619308,-1.603997 -23.446916,-2.034889 -7.973586,-0.283313 -15.95879,-0.371697 -23.92981,0.05783 -5.3511,0.375653 -10.673932,1.059903 -15.981741,1.826859 -7.609414,1.13779 -15.207086,2.36898 -22.855719,3.22273 -5.374729,0.54993 -10.763966,0.94616 -16.1298249,1.58634 -8.04530968,0.91725 -16.1064655,1.97732 -24.2199631,1.93197 -4.969167,-0.59185 -9.883168,-1.5822 -14.638835,-3.16635 -4.885282,-1.86146 -9.728179,-3.971118 -12.952373,-8.295386 -5.340275,-6.851809 -10.385824,-13.925905 -15.655041,-20.831419 -5.972251,-7.949453 -11.865282,-15.961799 -17.228775,-24.340062 0,0 9.659964,-5.598867 9.659964,-5.598867 z"
       inkscape:connector-curvature="0" />
    <path
       style="fill:#0000ff;fill-opacity:0;stroke-width:0.26458332"
       id="path3768"
       d="m 188.76466,89.373566 c -8.35798,-0.195374 -16.71921,-0.214715 -25.0791,-0.240205 -12.54982,-0.03659 -25.08607,0.727988 -37.6289,1.09396 -12.1394,0.138147 -24.26279,0.422452 -36.344515,1.661141 -9.561859,1.037228 -19.071997,2.481326 -28.619166,3.640847 -7.40401,0.876943 -14.857968,1.126892 -22.305999,1.258247 -7.321458,0.06847 -14.643276,0.02684 -21.96492,0.03748 -2.782158,0.01572 -5.564341,0.0286 -8.3464828,0.04722 -1.1279902,0.0075 -2.6933212,0.0658 -3.8347192,-0.08755 C 4.0779604,96.70907 3.5309026,96.543261 2.9759251,96.42254 -2.0427262,94.747664 -6.0807575,91.1735 -10.144793,87.923496 c -5.318088,-4.52846 -10.262329,-9.467474 -15.32465,-14.273522 -2.939221,-3.046764 -6.255252,-5.701339 -9.820917,-7.973811 -1.928947,-1.384896 -4.004186,-2.297877 -6.342158,-2.645945 0,0 9.161444,-6.401429 9.161444,-6.401429 v 0 c 2.393408,0.532222 4.508368,1.635958 6.495823,3.072085 3.544861,2.38216 6.820083,5.141359 9.733796,8.270192 4.967011,4.851186 9.853322,9.797386 15.223184,14.213834 3.997006,3.137541 8.06851,6.547234 13.069341,7.901374 4.442315,0.716066 8.988289,0.200123 13.466812,0.422354 7.324556,0.02711 14.649712,0.03077 21.97377,-0.06956 7.390344,-0.137977 14.785517,-0.38898 22.131954,-1.264973 9.483185,-1.128712 18.932818,-2.531702 28.437337,-3.478022 12.076607,-1.150027 24.194017,-1.370377 36.318677,-1.553546 12.56144,-0.378896 25.11652,-1.098917 37.68557,-1.097325 8.58032,-0.02595 17.16178,-0.04907 25.74032,-0.240202 0,0 -9.04085,6.568562 -9.04085,6.568562 z"
       inkscape:connector-curvature="0" />
    <path
       style="fill:#0000ff;fill-opacity:0;stroke-width:0.26458332"
       id="path3770"
       d="m -42.995085,56.454542 c 3.958844,3.097358 8.113271,5.929844 12.179427,8.881369 6.777017,4.779632 14.317368,8.278688 21.9011942,11.556214 6.4535733,2.655417 13.1631509,4.601078 19.8419108,6.591546 4.465995,1.449086 9.074538,2.238021 13.7205,2.826634 12.542098,1.131922 25.154404,1.19239 37.738318,1.282258 9.86197,0.107879 19.717064,0.03181 29.56552,-0.496866 6.262426,-0.516298 12.529105,-0.770806 18.811375,-0.874639 10.47095,-0.116091 20.9426,-0.153701 31.41398,-0.215492 6.51192,-0.0574 13.02408,-0.07748 19.53615,-0.108379 4.5975,-0.0078 9.19497,-0.0043 13.79247,-0.01154 2.9641,0.07265 5.95103,-0.327943 8.86181,0.342564 2.73231,0.643134 5.36012,1.733021 7.87486,2.969244 2.05019,1.033442 4.11932,2.033215 6.08974,3.214021 0,0 -9.35104,6.056532 -9.35104,6.056532 v 0 c -1.95003,-1.146191 -3.9684,-2.174068 -6.00605,-3.154952 -2.47663,-1.175065 -5.05272,-2.18702 -7.75471,-2.703643 -2.84083,-0.441743 -5.73518,-0.161337 -8.59866,-0.269255 -4.58377,-0.0082 -9.16754,-0.006 -13.7513,-0.01897 -6.41144,-0.03772 -12.82293,-0.06673 -19.23435,-0.107902 -10.47808,-0.02588 -20.95812,-0.02721 -31.43316,0.261614 -6.338861,0.227383 -12.657924,0.684517 -18.989162,1.026192 -9.68339,0.299691 -19.365759,0.181539 -29.051885,0.05575 C 41.401703,93.422318 28.620119,93.455335 15.887062,92.518554 11.129732,91.989668 6.401754,91.30444 1.882979,89.649558 c -6.5961659,-2.110856 -13.193738,-4.247433 -19.598037,-6.897113 -7.675024,-3.326583 -15.322415,-6.853648 -22.238001,-11.607406 -4.174003,-2.933567 -8.341458,-5.87771 -12.547812,-8.764489 0,0 9.505786,-5.926013 9.505786,-5.926013 z"
       inkscape:connector-curvature="0" />
    <use
       id="use3772"
       inkscape:spray-origin="#path3770"
       xlink:href="#path3770"
       x="0"
       y="0"
       width="100%"
       height="100%"
       transform="translate(-115.34653,-15.707282)" />
    <use
       id="use3774"
       inkscape:spray-origin="#path3770"
       xlink:href="#path3770"
       x="0"
       y="0"
       width="100%"
       height="100%"
       transform="translate(-94.364589,-16.186487)" />
    <use
       id="use3776"
       inkscape:spray-origin="#path3770"
       xlink:href="#path3770"
       x="0"
       y="0"
       width="100%"
       height="100%"
       transform="translate(-124.97615,-26.80337)" />
    <use
       id="use3778"
       inkscape:spray-origin="#path3770"
       xlink:href="#path3770"
       x="0"
       y="0"
       width="100%"
       height="100%"
       transform="translate(-105.11175,-50.745627)" />
    <use
       id="use3780"
       inkscape:spray-origin="#path3770"
       xlink:href="#path3770"
       x="0"
       y="0"
       width="100%"
       height="100%"
       transform="translate(-102.0801,-38.375343)" />
    <use
       id="use3782"
       inkscape:spray-origin="#path3770"
       xlink:href="#path3770"
       x="0"
       y="0"
       width="100%"
       height="100%"
       transform="translate(-75.764792,9.0269596)" />
    <use
       id="use3784"
       inkscape:spray-origin="#path3770"
       xlink:href="#path3770"
       x="0"
       y="0"
       width="100%"
       height="100%"
       transform="translate(-83.028709,2.8307551)" />
    <use
       id="use3786"
       inkscape:spray-origin="#path3770"
       xlink:href="#path3770"
       x="0"
       y="0"
       width="100%"
       height="100%"
       transform="translate(-96.081814,6.7198988)" />
    <use
       id="use3788"
       inkscape:spray-origin="#path3770"
       xlink:href="#path3770"
       x="0"
       y="0"
       width="100%"
       height="100%"
       transform="translate(-65.063584,32.079075)" />
    <use
       id="use3790"
       inkscape:spray-origin="#path3770"
       xlink:href="#path3770"
       x="0"
       y="0"
       width="100%"
       height="100%"
       transform="translate(-63.259949,23.637455)" />
    <use
       id="use3792"
       inkscape:spray-origin="#path3770"
       xlink:href="#path3770"
       x="0"
       y="0"
       width="100%"
       height="100%"
       transform="translate(-65.494627,22.624754)" />
    <use
       id="use3794"
       inkscape:spray-origin="#path3770"
       xlink:href="#path3770"
       x="0"
       y="0"
       width="100%"
       height="100%"
       transform="translate(-43.6417,0.43836387)" />
    <use
       id="use3796"
       inkscape:spray-origin="#path3770"
       xlink:href="#path3770"
       x="0"
       y="0"
       width="100%"
       height="100%"
       transform="translate(-53.907691,5.0701588)" />
    <use
       id="use3798"
       inkscape:spray-origin="#path3770"
       xlink:href="#path3770"
       x="0"
       y="0"
       width="100%"
       height="100%"
       transform="translate(-47.931723,12.794441)" />
    <use
       id="use3800"
       inkscape:spray-origin="#path3770"
       xlink:href="#path3770"
       x="0"
       y="0"
       width="100%"
       height="100%"
       transform="translate(-47.806456,-13.076417)" />
    <use
       id="use3802"
       inkscape:spray-origin="#path3770"
       xlink:href="#path3770"
       x="0"
       y="0"
       width="100%"
       height="100%"
       transform="translate(-50.183924,26.879186)" />
    <use
       id="use3804"
       inkscape:spray-origin="#path3770"
       xlink:href="#path3770"
       x="0"
       y="0"
       width="100%"
       height="100%"
       transform="translate(-57.383157,14.487211)" />
    <use
       id="use3806"
       inkscape:spray-origin="#path3770"
       xlink:href="#path3770"
       x="0"
       y="0"
       width="100%"
       height="100%"
       transform="translate(-34.668821,9.9400298)" />
    <use
       id="use3808"
       inkscape:spray-origin="#path3770"
       xlink:href="#path3770"
       x="0"
       y="0"
       width="100%"
       height="100%"
       transform="translate(-29.042342,-0.93722662)" />
    <use
       id="use3810"
       inkscape:spray-origin="#path3770"
       xlink:href="#path3770"
       x="0"
       y="0"
       width="100%"
       height="100%"
       transform="translate(44.570008,13.622722)" />
    <use
       id="use3812"
       inkscape:spray-origin="#path3770"
       xlink:href="#path3770"
       x="0"
       y="0"
       width="100%"
       height="100%"
       transform="translate(49.354325,-11.376375)" />
    <use
       id="use3814"
       inkscape:spray-origin="#path3770"
       xlink:href="#path3770"
       x="0"
       y="0"
       width="100%"
       height="100%"
       transform="translate(46.054112,21.132518)" />
    <use
       id="use3816"
       inkscape:spray-origin="#path3770"
       xlink:href="#path3770"
       x="0"
       y="0"
       width="100%"
       height="100%"
       transform="translate(49.114455,-17.327818)" />
    <use
       id="use3818"
       inkscape:spray-origin="#path3770"
       xlink:href="#path3770"
       x="0"
       y="0"
       width="100%"
       height="100%"
       transform="translate(58.225302,-21.264509)" />
    <use
       id="use3820"
       inkscape:spray-origin="#path3770"
       xlink:href="#path3770"
       x="0"
       y="0"
       width="100%"
       height="100%"
       transform="translate(92.939525,7.2601561)" />
    <use
       id="use3822"
       inkscape:spray-origin="#path3770"
       xlink:href="#path3770"
       x="0"
       y="0"
       width="100%"
       height="100%"
       transform="translate(66.798254,-6.7722714)" />
    <use
       id="use3824"
       inkscape:spray-origin="#path3770"
       xlink:href="#path3770"
       x="0"
       y="0"
       width="100%"
       height="100%"
       transform="translate(91.946039,-30.205888)" />
    <use
       id="use3826"
       inkscape:spray-origin="#path3770"
       xlink:href="#path3770"
       x="0"
       y="0"
       width="100%"
       height="100%"
       transform="translate(81.327842,3.8851064)" />
    <use
       id="use3828"
       inkscape:spray-origin="#path3770"
       xlink:href="#path3770"
       x="0"
       y="0"
       width="100%"
       height="100%"
       transform="translate(100.0047,-31.48788)" />
    <use
       id="use3830"
       inkscape:spray-origin="#path3770"
       xlink:href="#path3770"
       x="0"
       y="0"
       width="100%"
       height="100%"
       transform="translate(128.71394,-12.435203)" />
    <use
       id="use3832"
       inkscape:spray-origin="#path3770"
       xlink:href="#path3770"
       x="0"
       y="0"
       width="100%"
       height="100%"
       transform="translate(126.73583,17.059569)" />
    <use
       id="use3834"
       inkscape:spray-origin="#path3770"
       xlink:href="#path3770"
       x="0"
       y="0"
       width="100%"
       height="100%"
       transform="translate(151.53562,31.476121)" />
    <use
       id="use3836"
       inkscape:spray-origin="#path3770"
       xlink:href="#path3770"
       x="0"
       y="0"
       width="100%"
       height="100%"
       transform="translate(153.77603,41.817197)" />
    <use
       id="use3838"
       inkscape:spray-origin="#path3770"
       xlink:href="#path3770"
       x="0"
       y="0"
       width="100%"
       height="100%"
       transform="translate(100.78914,133.02068)" />
    <use
       id="use3840"
       inkscape:spray-origin="#path3770"
       xlink:href="#path3770"
       x="0"
       y="0"
       width="100%"
       height="100%"
       transform="translate(76.362283,-44.735908)" />
    <path
       style="opacity:0.98999999;fill:#0000b5;fill-opacity:0;stroke-width:0.26458332"
       id="path3842"
       d="m -9.673551,68.159473 c 4.4355453,1.205309 8.5558673,3.279405 12.6974265,5.228198 3.8827974,1.760437 7.4849225,4.022323 10.9043265,6.552912 4.015884,3.302844 8.120921,6.482612 12.339982,9.521949 3.237495,2.217634 6.137543,4.912061 9.462572,6.998645 2.411016,1.496877 5.129469,1.525812 7.872818,1.618665 -2.848502,-0.06418 -5.718715,0.16429 -8.545502,-0.192559 -0.902174,-0.113887 1.791771,-0.321474 2.672212,-0.54887 4.464524,-1.153086 8.635465,-3.261624 12.814916,-5.154834 7.770662,-3.577376 15.572788,-7.083404 23.383341,-10.572184 6.980142,-3.019118 14.004223,-5.952011 21.21133,-8.388601 4.319408,-1.703652 8.749249,-2.921135 13.349319,-3.519046 7.7994,-0.627877 15.66702,-0.386331 23.47703,-0.38699 3.45656,0.03584 6.98231,0.07623 10.38951,0.746471 2.424,0.476835 4.37324,1.183987 6.73844,1.940756 11.10629,3.897027 21.91388,8.600165 32.69811,13.301549 7.51448,3.177074 14.75805,6.933935 22.11329,10.44825 1.57302,0.749469 3.12477,1.589947 4.49169,2.674795 0,0 -11.14522,1.038836 -11.14522,1.038836 v 0 c -1.3527,-0.942332 -2.77698,-1.778778 -4.26193,-2.497302 -7.05015,-3.642354 -14.07278,-7.351622 -21.37408,-10.479373 -10.88989,-4.753507 -21.84601,-9.42604 -33.14745,-13.12459 -2.91177,-0.843862 -3.97421,-1.251955 -6.87784,-1.73564 -3.45015,-0.57472 -6.97606,-0.585952 -10.46172,-0.597509 19.02017,-0.0042 2.48987,-0.128084 -1.75014,0.266806 -4.64686,0.474179 -9.15047,1.531774 -13.49757,3.277251 -7.298053,2.316258 -14.378007,5.248182 -21.416654,8.25097 -7.774199,3.492622 -15.560749,6.957574 -23.276771,10.578598 -3.258325,1.486169 -6.478921,3.120011 -9.824416,4.405751 -0.709797,0.272791 -4.580633,1.628894 -5.470472,1.683134 -4.391472,0.267692 -8.797522,0.174125 -13.196284,0.261186 C 29.822666,99.594409 27.100561,99.289144 24.694412,97.551728 21.507342,95.320717 18.588555,92.73192 15.409096,90.487824 11.202394,87.391223 7.097124,84.170162 2.9642805,80.978276 -0.43956432,78.563204 -3.9798601,76.350415 -7.7863397,74.616648 -12.004691,72.642229 -16.245599,70.651819 -20.8105,69.606987 c 0,0 11.136949,-1.447514 11.136949,-1.447514 z"
       inkscape:connector-curvature="0" />
    <path
       style="opacity:0.98999999;fill:#00ccb5;fill-opacity:0;stroke-width:0.26458332"
       id="path4649"
       d="m -1.975809,62.532921 c 3.3661873,0.02429 6.7325148,0.0217 10.098772,0.02699 7.858153,0.180927 15.814853,-0.584856 23.607502,0.60896 0.755441,0.142507 1.657628,0.271118 2.380462,0.564766 2.72628,1.107543 5.605679,3.734726 7.891166,5.503577 8.854821,6.76116 18.042054,13.087413 27.581987,18.840934 4.724238,2.645029 9.439679,5.64615 14.783098,6.852623 0.405339,0.05619 0.809075,0.125508 1.21602,0.168564 0.674463,0.07136 1.345271,0.08757 2.022483,0.08982 0.345877,0.0011 1.383464,-0.0095 1.037587,-0.01021 -9.109252,-0.01992 -13.236522,0.02241 -8.4427,-0.02146 4.640262,0.110008 9.161777,-1.088083 13.592878,-2.329781 5.462493,-1.617154 10.648164,-3.98423 15.667634,-6.650648 3.83823,-2.167364 7.83987,-3.961456 11.92204,-5.605786 3.54984,-1.780214 7.3845,-2.648931 11.20411,-3.605328 7.24469,-1.66819 14.63828,-2.535092 21.99496,-3.538464 8.67209,-1.332658 17.36624,-2.495132 26.09655,-3.36895 7.27869,-0.773708 14.5263,-0.676399 21.85607,-0.336182 1.35874,0.06307 6.20316,1.149411 7.36032,1.394116 7.32026,1.523976 14.46704,3.660971 21.60843,5.845696 0.64663,0.22338 1.29326,0.446757 1.93989,0.670134 0,0 -10.82586,1.342882 -10.82586,1.342882 v 0 c -0.61175,-0.217035 -1.2235,-0.434073 -1.83525,-0.651108 -6.98412,-2.300128 -14.03164,-4.363048 -21.25866,-5.774404 -1.33653,-0.252976 -2.66689,-0.54103 -4.00959,-0.758931 -1.17788,-0.191151 -4.72738,-0.278603 -3.54918,-0.467749 2.5044,-0.402045 5.0711,-0.139554 7.60719,-0.183702 0.86167,-0.015 -1.72274,0.05621 -2.58361,0.09625 -2.52759,0.117549 -3.25689,0.188812 -5.85784,0.378015 -8.81618,0.778814 -17.59131,1.912668 -26.33464,3.286736 -7.15933,1.02271 -14.3538,1.8781 -21.41334,3.491535 -3.77424,1.044432 -7.68051,1.650013 -11.20579,3.464999 -1.35079,0.551788 -2.73027,1.032039 -4.07754,1.592371 -2.70816,1.126331 -5.23679,2.632104 -7.87986,3.893386 -5.06675,2.734733 -10.34006,5.081928 -15.82391,6.854753 -4.1607,1.282383 -1.53674,0.549294 -5.613064,1.518391 -2.524233,0.600107 -5.042008,1.285687 -7.665876,1.155166 -5.881579,0.110355 -11.895341,0.71093 -17.686594,-0.500574 C 68.374344,94.791817 63.918618,91.803431 59.402106,89.117862 49.906687,83.113014 40.674835,76.697474 31.49614,70.221868 28.208335,67.900695 24.971384,65.182201 20.827484,64.74411 c -1.815976,-0.216848 -1.251755,-0.173705 -3.264962,-0.298625 -0.703768,-0.04367 -2.816871,-0.09627 -2.11208,-0.117848 16.690405,-0.511127 7.091059,0.108953 3.415975,-0.06612 -3.252628,0.0052 -6.505339,0.0021 -9.7578901,0.027 0,0 -11.0843359,-1.755587 -11.0843359,-1.755587 z"
       inkscape:connector-curvature="0" />
    <path
       style="opacity:0.98999999;fill:#00ccb5;fill-opacity:0;stroke-width:0.26458332"
       id="path4651"
       d="m 71.441605,78.986601 c 1.588617,0.746557 3.780732,1.799725 5.325322,2.396895 1.608249,0.621781 3.251144,1.149956 4.877816,1.721813 6.930263,2.436334 13.877621,4.729853 20.897047,6.897132 6.98965,2.188728 14.01421,4.258712 21.04501,6.309577 1.79936,0.524867 7.00207,1.975011 8.97519,2.853396 1.00366,0.446805 1.90261,1.099066 2.85391,1.648596 0.65009,0.79664 1.42307,1.50713 1.95027,2.38992 1.94134,3.25074 2.1558,7.39786 2.33832,11.05355 0.15703,3.14507 0.14974,8.19233 0.16798,11.2792 -0.15464,13.0771 -0.28675,26.15195 -0.12437,39.22939 0.0269,1.42 0.0537,2.84001 0.0806,4.26002 0,0 -10.4223,-0.007 -10.4223,-0.007 v 0 c 0.0462,-1.42004 0.0923,-2.84008 0.13849,-4.26011 0.34596,-13.06568 0.48299,-26.13684 0.25648,-39.20627 -0.10645,-4.12367 -0.11332,-7.11443 -0.47986,-11.18971 -0.3074,-3.41775 -0.65968,-7.43457 -2.63895,-10.39708 -0.51069,-0.76439 -1.24339,-1.35437 -1.86508,-2.03155 -0.88369,-0.4955 -1.72668,-1.07182 -2.65105,-1.48649 -1.99819,-0.896381 -6.61585,-2.284647 -8.47323,-2.861131 C 106.80708,95.449373 99.913084,93.33685 93.020278,91.221278 82.05317,87.879064 71.060002,84.516544 60.390701,80.308221 c 0,0 11.050904,-1.321625 11.050904,-1.321625 z"
       inkscape:connector-curvature="0" />
    <path
       style="opacity:0.98999999;fill:#00ccb5;fill-opacity:0;stroke-width:0.26458332"
       id="path4653"
       d="m 154.96177,122.48314 c -19.67609,-0.15914 -39.35299,-0.2277 -59.029601,-0.29095 -32.482623,-0.0831 -64.965463,-0.005 -97.4477459,0.15065 -8.8249401,0.0346 -17.6497141,0.11487 -26.4747571,0.11788 -1.007457,-0.002 -2.014911,-0.004 -3.022364,-0.006 -1.1829,-0.003 -2.365796,-0.006 -3.548693,-0.009 -1.478007,-0.005 -5.571751,-0.95904 -4.434019,-0.0156 1.17915,0.9778 6.052097,-0.3192 4.5931,0.1475 -2.088523,0.66809 -4.381039,0.24198 -6.560653,0.48188 -2.417485,0.26608 -4.814964,0.69011 -7.222448,1.03516 -10.873867,1.85951 -21.451347,5.12465 -31.526836,9.60583 -5.881214,2.61573 -8.875747,4.3332 -14.529443,7.33931 -11.30098,6.01244 -21.64721,13.55294 -32.24572,20.67652 -6.28745,4.22193 -12.80493,8.04889 -19.63362,11.31828 -1.43007,0.71684 -2.91823,1.27551 -4.43645,1.7666 0,0 -10.95631,-1.42604 -10.95631,-1.42604 v 0 c 1.59419,-0.39067 3.14931,-0.87718 4.64408,-1.57081 7.05386,-3.12013 13.82943,-6.77408 20.23526,-11.09142 10.83716,-7.0784 21.36571,-14.66321 32.8446,-20.71009 5.787568,-3.08185 8.617176,-4.70827 14.6263,-7.41955 10.003559,-4.51355 20.4944,-7.88365 31.293527,-9.87389 5.006808,-0.79723 8.417345,-1.50984 13.440963,-1.68632 9.018079,-0.31681 18.045616,-0.18457 27.067023,-0.24526 8.3288692,0.003 16.65744114,0.0815 24.9861924,0.11789 31.8481166,0.16238 63.6968396,0.23167 95.5453246,0.15065 20.90128,-0.0646 41.80278,-0.13627 62.70361,-0.29095 0,0 -10.91132,1.72818 -10.91132,1.72818 z"
       inkscape:connector-curvature="0" />
    <path
       style="opacity:0.98999999;fill:#00ccb5;fill-opacity:0;stroke-width:0.26458332"
       id="path4655"
       d="m -93.436193,172.39583 c 5.999544,5.88856 10.566908,13.03951 15.240799,19.97405 1.322911,1.95061 2.658512,3.89266 3.968737,5.85181 3.161527,4.72736 4.828749,7.44846 8.101271,12.08473 3.63473,5.14941 7.529103,10.09457 11.479604,15.00192 3.876937,4.33126 7.26095,9.45397 12.287253,12.56437 0.457282,0.15173 0.903338,0.34281 1.371846,0.45518 1.138648,0.2731 2.602881,0.35183 3.737835,0.40423 0.952862,0.044 3.812902,0.13568 2.860378,0.0848 -8.046413,-0.42945 -8.9389,0.21405 -1.018762,-1.40147 14.862959,-4.74911 28.6768459,-12.56782 40.9615383,-22.15382 2.6820595,-2.09287 5.1922087,-4.39717 7.7883137,-6.59576 6.984857,-6.2699 13.321874,-13.21887 18.881479,-20.78153 4.347495,-5.91384 8.037403,-12.21529 11.620245,-18.60502 2.117043,-3.8269 3.921358,-7.81043 5.824837,-11.74362 0.196239,-0.4055 1.653437,-3.4624 2.155793,-4.04054 0.270804,-0.31165 0.69692,-0.44288 1.045379,-0.66433 4.147278,0.60467 8.490577,0.41646 12.441833,1.81401 1.151189,0.40717 1.190329,2.1326 1.763998,3.21053 0.750531,1.41026 1.463075,2.84046 2.208329,4.25351 2.832648,5.37088 5.585267,10.75873 8.259053,16.21143 5.332876,11.28165 11.176609,22.30221 17.277797,33.18323 2.567443,4.26355 4.717452,8.90551 7.997127,12.69449 0.28327,0.24511 0.5403,0.52434 0.84982,0.73535 0.51124,0.34851 1.31672,0.65442 1.93349,0.68941 0.45173,0.0256 1.80202,-0.0503 1.35314,-0.10701 -9.531082,-1.2047 -11.02655,0.98787 -5.05036,-3.25322 1.73628,-1.54887 3.54278,-3.02244 5.20882,-4.64661 5.37023,-5.23524 9.21971,-9.7579 14.09477,-15.57694 3.59825,-4.295 7.17786,-8.60657 10.67982,-12.98044 14.97518,-18.70367 14.14579,-18.06304 28.94206,-38.31594 22.14053,-31.16303 41.39879,-64.26041 58.79024,-98.270724 0.28876,-0.581051 4.83124,-9.97877 5.92978,-11.398239 3.31393,-4.282059 13.36074,-0.855527 15.28033,0.104812 2.11093,1.056063 2.08654,4.235387 3.06469,6.383528 1.26765,2.783888 2.44776,5.606807 3.67163,8.41021 6.05723,13.524391 11.17044,27.450954 17.07527,41.036853 0.55665,0.594932 2.47353,1.650569 1.66992,1.784795 -3.01929,0.504311 -6.24983,0.392419 -9.16791,-0.532403 -0.86972,-0.27564 1.64257,-0.934315 2.15216,-1.691092 1.25982,-1.87094 2.20979,-3.946806 3.05293,-6.038861 2.67578,-6.639343 3.49474,-11.24473 5.16998,-18.230299 2.40009,-12.78436 3.75057,-25.871411 2.09238,-38.825474 -0.0344,-0.156493 -0.7982,-4.185018 -1.2772,-4.607523 -0.50903,-0.448969 -2.58673,-0.762899 -1.98692,-0.445262 1.19915,0.635016 5.08289,0.925584 3.81709,1.414449 -7.14907,2.761084 -14.88769,3.655592 -22.27027,5.712437 -9.3267,2.598491 -18.56608,5.500811 -27.84911,8.251219 -23.82027,7.540246 -47.44232,15.683272 -71.03951,23.888308 -11.5253,4.007487 -23.00106,8.130606 -34.60488,11.904458 -1.8876,0.491125 -3.75004,1.091822 -5.6628,1.473375 -4.94849,0.987113 -13.445806,0.147121 -16.836804,-0.639085 -0.931794,-0.216038 -1.247878,-1.483212 -1.636162,-2.357364 -0.939739,-2.11565 -1.062398,-4.965173 -1.309307,-7.184104 -0.611579,-10.614117 1.090004,-21.143428 3.169161,-31.510969 1.329547,-6.591226 2.888199,-13.136492 3.939325,-19.780774 0.248172,-2.252657 -0.145504,-2.112489 -2.427483,-2.302716 -1.870585,-0.155933 -3.743782,-0.286083 -5.618821,-0.373456 -8.122126,-0.378473 -6.012672,-0.44861 -10.412034,-0.190545 -17.526304,0.398984 -35.025203,1.53571 -52.467211,3.271136 -2.398851,0.117236 -12.00777,0.951468 -11.328176,-2.452561 0.614032,-3.075636 6.100959,-1.457691 9.154738,-2.17254 C 29.021209,13.9566 35.095465,12.615593 41.140006,11.149291 54.818978,7.8310051 69.897833,3.8716518 83.539768,0.33897681 85.404417,-0.15090314 111.70963,-7.147044 115.6072,-7.8870902 c 2.56705,-0.4874143 5.34751,-1.5293384 7.81102,-0.6584693 3.32765,1.1763505 8.4221,2.8718671 8.43427,6.401303 0.0145,4.2142764 -5.41815,6.4687022 -8.37956,9.4671005 -4.26724,4.320544 -8.85595,8.311317 -13.28393,12.466976 C 96.152053,32.565236 81.997991,45.211629 67.956159,57.981616 65.831873,59.913495 53.74551,70.643754 51.188945,74.116744 c -0.874692,1.188233 -0.965153,2.788621 -1.447729,4.18293 2.409132,0.0091 4.833271,0.295942 7.227396,0.02732 3.112317,-0.349205 6.116285,-1.36725 9.207304,-1.87131 9.482671,-1.546365 19.012762,-2.788656 28.504483,-4.278456 C 131.44701,66.406415 168.1454,60.176727 204.8357,53.944062 c 97.04012,-17.405242 -24.68454,4.524462 57.3748,-10.526099 6.00815,-1.101958 21.94869,-4.674052 29.94778,-3.92076 4.68231,0.440944 11.38103,-1.170315 13.81776,2.852219 2.0755,3.426248 -3.78132,7.063227 -5.67198,10.59484 -13.31695,16.878075 -6.46043,8.518787 -20.5809,25.068527 0,0 -7.80039,-0.549825 -7.80039,-0.549825 v 0 c 13.80902,-16.36046 7.34962,-8.030954 19.4374,-24.942464 1.47796,-3.043727 2.29497,-6.509417 4.43391,-9.131175 1.19767,-1.468017 6.89166,-1.964286 5.08588,-2.537534 -5.81843,-1.847073 -31.08548,3.0051 -33.13007,3.342378 -19.90325,3.28323 -39.71822,7.089052 -59.64899,10.211141 -16.21539,2.728055 -58.25642,9.782243 -74.34684,12.564954 -11.26402,1.948023 -22.51328,3.980518 -33.771888,5.959596 -18.94627,3.330443 -33.281365,6.621817 -52.606947,6.794098 -2.718025,0.02424 -5.290653,-1.249802 -7.935979,-1.874705 0.864079,-1.489022 1.446702,-3.18193 2.592237,-4.467064 C 44.731868,70.352723 58.380661,58.987041 60.310376,57.33221 74.739142,44.958791 89.099841,32.486369 102.69955,19.194538 c 4.01649,-4.15872 8.22288,-8.142066 12.04946,-12.476159 2.53228,-2.8681293 3.95991,-6.77263749 6.99832,-9.0978623 3.18762,-2.4394165 9.47137,-1.0513468 11.07318,-4.731829 1.21766,-2.7978364 -6.13237,-0.1506429 -9.14873,0.3099935 C 118.27651,-5.9773922 93.974032,0.27023909 90.185279,1.2199567 69.883363,6.4519058 68.788427,6.6663228 48.591496,12.141016 43.166813,13.611462 37.7572,15.136995 32.33643,16.621805 c -2.607384,0.714192 -5.137047,1.870967 -7.829329,2.116197 -4.314646,0.393006 -8.664641,-0.106214 -12.995671,-0.219321 -1.16536,-0.03043 2.331435,-0.01916 3.497153,-0.02874 17.869063,-1.514559 35.772102,-2.628415 53.699205,-3.160545 6.642904,-0.04893 13.285663,-0.167568 19.928718,-0.146797 3.102377,0.0097 6.205169,0.0923 9.304128,0.238205 1.908392,0.08985 6.638986,-0.24173 8.762536,1.605748 0.35461,0.308506 0.44056,0.854994 0.48919,1.322495 0.0504,0.484535 -0.13405,0.965032 -0.20107,1.447549 -1.42331,6.626178 -3.26149,13.156035 -4.6698,19.786414 -2.1667,10.233427 -3.876727,20.676438 -2.851257,31.167712 0.321513,2.14825 0.46437,4.628605 1.549787,6.608961 0.37636,0.686665 2.2863,1.467903 1.55876,1.757447 -2.48413,0.988627 -5.341885,0.370534 -7.981045,0.798468 -3.470656,0.562763 17.667865,-1.168273 10.437365,-1.523421 12.51712,-3.550853 24.88015,-7.545871 37.2623,-11.54386 24.21397,-7.818287 48.36891,-15.817289 72.55831,-23.710926 8.79605,-2.816847 17.5966,-5.619663 26.38814,-8.450541 6.37124,-2.051539 12.5487,-4.825404 19.10011,-6.196681 5.49495,-1.150147 11.17659,-1.331169 16.79057,-1.315609 0.83225,0.0024 1.58141,0.708133 2.08867,1.36793 0.41611,0.541253 0.90588,4.565941 0.9452,4.832654 0.83862,13.136004 -1.00179,26.246235 -3.42855,39.135679 -1.62441,7.293248 -2.37464,11.339272 -4.52139,18.416871 -0.66249,2.184193 -1.28431,4.399229 -2.2516,6.466575 -2.76439,5.908091 -13.2578,6.067881 -15.81052,0.0081 -4.88113,-13.836811 -9.44691,-27.816944 -15.93401,-41.02161 -1.37901,-2.769704 -2.60618,-5.620354 -4.13704,-8.309116 -1.16169,-2.040374 -5.11785,-3.827573 -3.92412,-5.849365 1.4294,-2.420933 5.4953,-1.251903 8.29119,-1.547001 0.95933,-0.101253 -2.02939,0.297029 -2.73009,0.960044 -1.32295,1.251802 -6.75692,10.791269 -7.05292,11.293355 -19.73436,33.295741 -40.12226,66.227634 -61.98253,98.176894 -12.45619,17.94676 -14.74786,21.43264 -27.0293,38.46711 -8.44959,11.71965 -17.04396,23.45128 -27.36034,33.62892 -1.04264,0.9201 -1.77769,2.42786 -3.12794,2.76031 -4.26592,1.05035 -8.73908,0.93064 -13.121448,1.2406 -0.859785,0.0608 -1.825287,-0.27585 -2.554685,-0.7088 -0.774903,-0.45996 -1.080045,-0.89321 -1.684829,-1.55167 -2.949631,-3.98682 -4.94043,-8.57028 -7.25645,-12.93166 -5.686596,-11.05919 -11.523654,-22.04195 -16.953065,-33.2322 -2.737583,-5.46657 -5.538732,-10.85634 -8.602205,-16.14867 -0.811091,-1.40121 -1.594681,-2.81983 -2.463937,-4.18572 -0.64234,-1.00932 -3.111479,-2.35039 -2.06715,-2.9341 2.756302,-1.54058 6.267312,-0.77667 9.400968,-1.16501 -0.378081,-0.0721 -0.802923,-0.41235 -1.134242,-0.21644 -0.51408,0.30396 -2.429656,3.79397 -2.489806,3.90247 -2.169684,3.91389 -4.144521,7.93597 -6.457548,11.7709 -3.821147,6.39545 -7.708302,12.73729 -12.178598,18.71068 -5.685264,7.59687 -12.065471,14.63986 -19.163915,20.94465 -2.611867,2.22048 -5.143062,4.53952 -7.835601,6.66146 -12.0626381,9.50635 -25.527589,17.34991 -39.94711,22.66121 -9.576549,2.42109 -4.177578,1.46299 -19.627477,1.67489 -2.834431,0.0389 -5.82482,-0.11496 -8.348564,-1.51726 -4.619903,-3.51227 -7.782362,-8.53902 -11.448206,-12.95659 -3.778327,-4.9809 -7.56526,-9.95355 -11.130582,-15.09126 -3.232205,-4.65767 -4.911706,-7.38606 -8.124372,-12.07597 -1.34352,-1.9613 -2.728071,-3.89417 -4.092104,-5.84126 -4.926902,-6.89983 -9.762532,-14.16598 -16.395894,-19.56638 0,0 11.071387,-1.01 11.071387,-1.01 z"
       inkscape:connector-curvature="0" />
    <path
       style="opacity:0.98999999;fill:#00ccb5;fill-opacity:0;stroke-width:0.26458332"
       id="path4657"
       d="m 54.914712,-15.840731 c -3.431707,1.609966 -6.010704,4.730882 -8.402304,7.5721918 -2.673464,3.1761718 -5.191321,6.5352212 -7.719171,9.8227513 C 32.144911,10.454625 26.353334,19.941944 20.412202,29.31446 c -11.5141061,18.164235 1.636454,-2.926659 -9.48,14.981507 -5.4874612,9.211397 -11.30489548,18.230794 -16.6200263,27.545146 -2.3920079,4.191807 -4.2768427,7.837659 -6.5223747,12.08722 -2.406616,4.72273 -4.592164,9.559853 -6.510422,14.501595 -0.426405,1.098489 -1.89649,5.100122 -2.245525,6.463952 -0.17848,0.6974 -0.231853,1.42096 -0.347779,2.13144 0.128124,0.74328 -0.02942,1.88079 1.095834,2.00257 0.535761,0.058 2.121686,-0.24715 1.586547,-0.31062 -2.559312,-0.30352 -5.461068,0.82301 -7.720497,-0.41683 -1.477527,-0.81077 3.292001,-0.72487 4.931983,-1.11333 2.701555,-0.63991 5.394792,-1.31446 8.092188,-1.97168 25.775027,-6.84107 51.374672,-14.328828 76.87383,-22.130454 8.450971,-2.780377 16.958273,-5.396714 25.390202,-8.234299 1.784202,-0.798729 3.738467,-0.821582 5.609767,-1.247471 0.928667,-0.211354 1.840529,-0.490722 2.760795,-0.736084 10.849716,-3.26173 21.612626,-6.831742 32.147856,-11.00296 6.45321,-2.457031 12.76049,-5.31278 19.38249,-7.295202 7.05859,-1.936329 12.88864,-2.033381 20.5887,-1.577562 0.62004,0.03671 1.11769,0.542165 1.67654,0.813249 0.6517,0.437097 1.34503,0.817759 1.95511,1.311296 1.61797,1.308905 3.98767,3.803203 5.3512,5.227281 3.41342,3.565014 6.70666,7.240831 10.02687,10.892036 4.54955,4.844687 8.93288,9.956545 14.3495,13.865328 2.3651,1.539721 5.08468,1.719574 7.81862,1.764871 4.42906,-0.03042 1.48177,-0.0072 -8.84213,-0.01836 0,0 10.98403,1.729518 10.98403,1.729518 v 0 c -12.36326,0.008 -7.99926,0.109791 -13.09556,-0.02032 -2.79531,-0.173586 -5.47073,-0.674183 -7.73529,-2.459776 -5.06854,-4.180642 -9.28524,-9.262846 -13.69638,-14.104541 -3.34718,-3.661219 -6.66743,-7.350942 -10.21736,-10.819622 -1.77516,-1.734528 -3.64733,-3.54667 -5.72237,-4.944096 -0.64329,-0.433224 -1.36597,-0.734952 -2.04896,-1.102429 -4.55193,-1.237096 -2.99066,-0.648139 7.65573,-0.564052 0.54957,0.0043 -1.09463,0.101259 -1.64022,0.167383 -2.27575,0.275821 -4.5347,0.682599 -6.76293,1.222338 -6.79631,1.863667 -13.24516,4.740273 -19.8632,7.134368 -10.42721,4.071091 -21.1058,7.433506 -31.65847,11.157307 -0.16615,0.05389 -3.60597,1.196248 -4.23185,1.320393 -0.30331,0.06016 -0.61895,0.0024 -0.92731,0.02545 -1.01944,0.07626 -2.00797,0.377695 -2.987821,0.644633 -9.1089,2.709317 -18.281131,5.206619 -27.366402,7.999653 -25.451421,7.290967 -50.889538,14.622624 -76.2446019,22.243554 -2.4751067,0.69019 -4.9493929,1.38333 -7.4253201,2.07057 -1.515567,0.42067 -2.984011,1.09743 -4.549148,1.25317 -4.551933,0.45296 -9.137249,0.55317 -13.71165,0.56393 -0.618373,0.001 -1.270664,-0.17473 -1.778555,-0.52748 -1.051288,-0.73016 -0.842095,-1.98224 -0.90492,-3.02477 0.176408,-0.75993 0.295026,-1.53563 0.529225,-2.27978 0.401936,-1.27714 2.165048,-5.518624 2.590739,-6.515969 2.113052,-4.950661 4.398624,-9.828897 6.936456,-14.577361 2.030564,-3.706982 4.622974,-8.49299 6.733131,-12.118906 C -9.9609409,62.012885 -4.0699642,52.987971 1.4929023,43.76916 7.7378739,33.797142 4.5659341,38.789774 11.010856,28.792622 16.895809,19.451141 22.502636,9.9188819 28.914349,0.9195551 c 4.568603,-6.300427 8.839755,-13.1307451 14.871554,-18.1575991 0,0 11.128809,1.397313 11.128809,1.397313 z"
       inkscape:connector-curvature="0" />
    <path
       style="opacity:0.98999999;fill:#00ccb5;fill-opacity:0;stroke-width:0.26458332"
       id="path4661"
       d="m -44.463742,40.191364 c 8.256908,3.512092 16.479038,7.079919 24.604348,10.88861 9.181718,4.021685 17.9929877,8.82198 26.2949647,14.432203 5.2140763,3.562143 10.0089043,7.679856 15.1242843,11.376895 3.613693,2.674694 6.153397,2.843921 10.501131,3.043486 -2.204152,-0.0058 -4.455388,0.435713 -6.612452,-0.01749 -1.660126,-0.348789 3.390401,-0.153014 5.079995,-0.304485 8.921274,-0.799785 17.598864,-2.700965 26.303764,-4.730689 7.954364,-1.751166 15.694406,-4.236805 23.401972,-6.831063 3.843877,-1.315458 7.672964,-2.679647 11.584943,-3.782393 2.055817,-0.588063 4.168177,-0.865643 6.297951,-0.962073 8.641971,-0.123698 17.282931,-0.179721 25.908751,0.362561 6.83639,0.693135 13.57992,2.125488 20.16181,4.077224 3.48476,0.698942 6.48605,2.471246 9.47428,4.296225 3.13828,1.942732 6.2423,3.965752 9.56309,5.585492 3.02706,1.341863 5.92656,2.953517 9.04295,4.087765 2.62414,0.955079 3.26832,1.066596 6.04113,1.825042 5.38683,1.204273 10.89786,1.715294 16.39765,2.055379 1.32191,0.08174 5.29086,0.134149 3.96816,0.201898 -2.1976,0.112559 -4.40074,-0.04469 -6.60111,-0.06704 7.76125,-0.262125 14.94315,-3.318034 21.78683,-6.737826 3.97115,-2.080051 7.91342,-4.212159 11.84968,-6.357109 1.76142,-1.040644 3.66299,-1.537539 5.67729,-1.736926 4.59378,-0.255104 9.31746,-0.072 13.83248,0.195 0.63824,0.03774 4.20587,1.802085 4.76415,2.069235 2.75518,1.362461 5.44585,2.839323 8.04777,4.473961 0,0 -10.83299,1.0999 -10.83299,1.0999 v 0 c -2.58186,-1.607471 -5.25248,-3.055485 -8.01767,-4.326742 -1.34003,-0.562142 -2.26562,-0.994013 -3.62244,-1.417667 -0.44211,-0.138044 -1.80734,-0.32603 -1.34478,-0.349581 17.67224,-0.899776 12.03205,-0.0027 8.19543,-0.07611 -2.00036,0.07774 -3.94143,0.303609 -5.74204,1.266925 -4.12485,2.06987 -8.18228,4.274376 -12.3186,6.32238 -6.87074,3.480959 -14.08798,6.711982 -21.87781,7.209658 -4.72196,0.0053 -9.44427,0.07246 -14.1659,0.01582 -1.30598,-0.01566 -2.60844,-0.141179 -3.9113,-0.23263 -5.57281,-0.391167 -11.15611,-0.953344 -16.60456,-2.233117 -2.84433,-0.800404 -3.50491,-0.91498 -6.18495,-1.929458 -3.15867,-1.19565 -6.14622,-2.792376 -9.23243,-4.154879 -3.30649,-1.712614 -6.44661,-3.728548 -9.62617,-5.663332 -2.935,-1.749171 -5.96222,-3.245118 -9.31083,-4.040519 -6.43733,-1.973606 -13.07379,-3.316073 -19.78896,-3.874881 -3.72519,-0.186626 -3.85908,-0.23273 -7.45597,-0.268041 -0.96844,-0.0095 -3.87392,0.0052 -2.90544,0.0077 15.9418,0.04143 9.40324,-0.01606 5.82459,0.02093 -2.14585,0.03026 -4.28975,0.174995 -6.38155,0.694338 -4.021296,0.996923 -7.927503,2.382269 -11.857489,3.682942 -7.979897,2.559584 -15.961712,5.111387 -24.181676,6.82362 -3.284971,0.750911 -10.025086,2.316138 -13.245621,2.948672 -10.590426,2.080033 -21.173008,3.086082 -32.000001,2.393773 -1.823255,-0.114311 -3.084802,-0.09567 -4.806044,-0.500719 C 14.445755,80.5386 12.568017,79.195795 10.783149,77.894244 5.8616905,74.106616 1.131647,70.068518 -3.9785917,66.531656 -12.136479,61.002155 -20.757079,56.198412 -29.777399,52.212694 c -8.447881,-3.864051 -16.967366,-7.645106 -25.79053,-10.578073 0,0 11.104187,-1.443257 11.104187,-1.443257 z"
       inkscape:connector-curvature="0" />
    <path
       style="opacity:0.98999999;fill:#00ccb5;fill-opacity:0;stroke-width:0.26458332"
       id="path4663"
       sodipodi:type="arc"
       sodipodi:cx="80.347046"
       sodipodi:cy="101.1984"
       sodipodi:rx="58.450153"
       sodipodi:ry="24.148792"
       sodipodi:start="0"
       sodipodi:end="3.4252785"
       d="M 138.7972,101.1984 A 58.450153,24.148792 0 0 1 104.66202,123.15851 58.450153,24.148792 0 0 1 42.126717,119.469 58.450153,24.148792 0 0 1 24.233127,94.43925 l 56.113919,6.75915 z" />
    <path
       style="opacity:0.98999999;fill:#00ccb5;fill-opacity:0;stroke-width:0.26458332"
       id="path4665"
       sodipodi:type="arc"
       sodipodi:cx="109.46408"
       sodipodi:cy="147.67358"
       sodipodi:rx="103.06198"
       sodipodi:ry="76.640579"
       sodipodi:start="0"
       sodipodi:end="3.4252785"
       d="M 212.52606,147.67358 A 103.06198,76.640579 0 0 1 152.33736,217.36799 103.06198,76.640579 0 0 1 42.072251,205.65865 103.06198,76.640579 0 0 1 10.521455,126.22219 l 98.942625,21.45139 z" />
    <path
       style="opacity:0.98999999;fill:#00ccb5;fill-opacity:0;stroke-width:0.26458332"
       id="path4667"
       sodipodi:type="arc"
       sodipodi:cx="95.05011"
       sodipodi:cy="103.17254"
       sodipodi:rx="115.8606"
       sodipodi:ry="33.565556"
       sodipodi:start="0"
       sodipodi:end="3.4252785"
       d="M 210.91071,103.17254 A 115.8606,33.565556 0 0 1 143.24756,133.69594 115.8606,33.565556 0 0 1 19.28931,128.56771 115.8606,33.565556 0 0 1 -16.179581,93.777672 L 95.05011,103.17254 Z" />
    <rect
       style="opacity:0.98999999;fill:#00ccb5;fill-opacity:0;stroke-width:0.26458332"
       id="rect4669"
       width="252.00128"
       height="115.78809"
       x="-49.136902"
       y="81.553574" />
  </g>
</svg>
